999
dxfrw 0.5.12
0
SECTION
2
HEADER
9
$ACADVER
1
AC1021
9
$HANDSEED
5
20000
9
$DWGCODEPAGE
3
ANSI_1252
9
$INSBASE
10
0
20
0
30
0
9
$EXTMIN
10
10000000000
20
10000000000
30
0
9
$EXTMAX
10
-10000000000
20
-10000000000
30
0
9
$LIMMIN
10
0
20
0
9
$LIMMAX
10
420
20
297
9
$ORTHOMODE
70
0
9
$LTSCALE
40
1
9
$TEXTSTYLE
7
STANDARD
9
$CLAYER
8
functionLabels
9
$DIMASZ
40
2.5
9
$DIMLFAC
40
1
9
$DIMSCALE
40
1
9
$DIMEXO
40
0.625
9
$DIMEXE
40
1.25
9
$DIMTXT
40
2.5
9
$DIMTSZ
40
0
9
$DIMAUNIT
70
0
9
$DIMADEC
70
2
9
$DIMLUNIT
70
2
9
$DIMSTYLE
2
STANDARD
9
$DIMGAP
40
0.625
9
$DIMTIH
70
0
9
$LUNITS
70
2
9
$LUPREC
70
4
9
$AUNITS
70
0
9
$AUPREC
70
2
9
$SPLINESEGS
70
8
9
$GRIDMODE
70
1
9
$SNAPSTYLE
70
0
9
$GRIDUNIT
10
1
20
1
9
$PINSBASE
10
12.50012
20
114.61923
30
0
9
$PLIMMIN
10
0
20
0
9
$PLIMMAX
10
210
20
297
9
$INSUNITS
70
4
9
$PSVPSCALE
40
1.07558
0
ENDSEC
0
SECTION
2
CLASSES
0
ENDSEC
0
SECTION
2
TABLES
0
TABLE
2
VPORT
5
8
330
0
100
AcDbSymbolTable
70
1
0
VPORT
5
31
330
2
100
AcDbSymbolTableRecord
100
AcDbViewportTableRecord
2
*ACTIVE
70
0
10
0
20
0
11
1
21
1
12
101.990635641
22
44.1728149829
13
0
23
0
14
10
24
10
15
1
25
1
16
0
26
0
36
1
17
0
27
0
37
0
40
185.942111237
41
1.94776119403
42
50
43
0
44
0
50
0
51
0
71
0
72
100
73
1
74
3
75
0
76
1
77
0
78
0
281
0
65
1
110
0
120
0
130
0
111
1
121
0
131
0
112
0
122
1
132
0
79
0
146
0
348
10020
60
3
61
5
292
1
282
1
141
0
142
0
63
250
421
3358443
0
ENDTAB
0
TABLE
2
LTYPE
5
5
330
0
100
AcDbSymbolTable
70
4
0
LTYPE
5
14
330
5
100
AcDbSymbolTableRecord
100
AcDbLinetypeTableRecord
2
ByBlock
70
0
3

72
65
73
0
40
0
0
LTYPE
5
15
330
5
100
AcDbSymbolTableRecord
100
AcDbLinetypeTableRecord
2
ByLayer
70
0
3

72
65
73
0
40
0
0
LTYPE
5
16
330
5
100
AcDbSymbolTableRecord
100
AcDbLinetypeTableRecord
2
Continuous
70
0
3
Solid line
72
65
73
0
40
0
0
LTYPE
5
32
330
5
100
AcDbSymbolTableRecord
100
AcDbLinetypeTableRecord
2
DOT
70
0
3
Dot . . . . . . . . . . . . . . . . . . . . . .
72
65
73
2
40
6.35
49
0
74
0
49
-6.35
74
0
0
LTYPE
5
33
330
5
100
AcDbSymbolTableRecord
100
AcDbLinetypeTableRecord
2
DOT2
70
0
3
Dot (.5x) .....................................
72
65
73
2
40
3.175
49
0
74
0
49
-3.175
74
0
0
LTYPE
5
34
330
5
100
AcDbSymbolTableRecord
100
AcDbLinetypeTableRecord
2
DOTX2
70
0
3
Dot (2x) .  .  .  .  .  .  .  .  .  .  .  .  .
72
65
73
2
40
12.7
49
0
74
0
49
-12.7
74
0
0
LTYPE
5
35
330
5
100
AcDbSymbolTableRecord
100
AcDbLinetypeTableRecord
2
DASHED
70
0
3
Dot . . . . . . . . . . . . . . . . . . . . . .
72
65
73
2
40
19.05
49
12.7
74
0
49
-6.35
74
0
0
LTYPE
5
36
330
5
100
AcDbSymbolTableRecord
100
AcDbLinetypeTableRecord
2
DASHED2
70
0
3
Dashed (.5x) _ _ _ _ _ _ _ _ _ _ _ _ _ _ _ _ _
72
65
73
2
40
9.525
49
6.35
74
0
49
-3.175
74
0
0
LTYPE
5
37
330
5
100
AcDbSymbolTableRecord
100
AcDbLinetypeTableRecord
2
DASHEDX2
70
0
3
Dashed (2x) ____  ____  ____  ____  ____  ___
72
65
73
2
40
38.1
49
25.4
74
0
49
-12.7
74
0
0
LTYPE
5
38
330
5
100
AcDbSymbolTableRecord
100
AcDbLinetypeTableRecord
2
DASHDOT
70
0
3
Dash dot __ . __ . __ . __ . __ . __ . __ . __
72
65
73
4
40
25.4
49
12.7
74
0
49
-6.35
74
0
49
0
74
0
49
-6.35
74
0
0
LTYPE
5
39
330
5
100
AcDbSymbolTableRecord
100
AcDbLinetypeTableRecord
2
DASHDOT2
70
0
3
Dash dot (.5x) _._._._._._._._._._._._._._._.
72
65
73
4
40
12.7
49
6.35
74
0
49
-3.175
74
0
49
0
74
0
49
-3.175
74
0
0
LTYPE
5
3A
330
5
100
AcDbSymbolTableRecord
100
AcDbLinetypeTableRecord
2
DASHDOTX2
70
0
3
Dash dot (2x) ____  .  ____  .  ____  .  ___
72
65
73
4
40
50.8
49
25.4
74
0
49
-12.7
74
0
49
0
74
0
49
-12.7
74
0
0
LTYPE
5
3B
330
5
100
AcDbSymbolTableRecord
100
AcDbLinetypeTableRecord
2
DIVIDE
70
0
3
Divide ____ . . ____ . . ____ . . ____ . . ____
72
65
73
6
40
31.75
49
12.7
74
0
49
-6.35
74
0
49
0
74
0
49
-6.35
74
0
49
0
74
0
49
-6.35
74
0
0
LTYPE
5
3C
330
5
100
AcDbSymbolTableRecord
100
AcDbLinetypeTableRecord
2
DIVIDE2
70
0
3
Divide (.5x) __..__..__..__..__..__..__..__.._
72
65
73
6
40
15.875
49
6.35
74
0
49
-3.175
74
0
49
0
74
0
49
-3.175
74
0
49
0
74
0
49
-3.175
74
0
0
LTYPE
5
3D
330
5
100
AcDbSymbolTableRecord
100
AcDbLinetypeTableRecord
2
DIVIDEX2
70
0
3
Divide (2x) ________  .  .  ________  .  .  _
72
65
73
6
40
63.5
49
25.4
74
0
49
-12.7
74
0
49
0
74
0
49
-12.7
74
0
49
0
74
0
49
-12.7
74
0
0
LTYPE
5
3E
330
5
100
AcDbSymbolTableRecord
100
AcDbLinetypeTableRecord
2
BORDER
70
0
3
Border __ __ . __ __ . __ __ . __ __ . __ __ .
72
65
73
6
40
44.45
49
12.7
74
0
49
-6.35
74
0
49
12.7
74
0
49
-6.35
74
0
49
0
74
0
49
-6.35
74
0
0
LTYPE
5
3F
330
5
100
AcDbSymbolTableRecord
100
AcDbLinetypeTableRecord
2
BORDER2
70
0
3
Border (.5x) __.__.__.__.__.__.__.__.__.__.__.
72
65
73
6
40
22.225
49
6.35
74
0
49
-3.175
74
0
49
6.35
74
0
49
-3.175
74
0
49
0
74
0
49
-3.175
74
0
0
LTYPE
5
40
330
5
100
AcDbSymbolTableRecord
100
AcDbLinetypeTableRecord
2
BORDERX2
70
0
3
Border (2x) ____  ____  .  ____  ____  .  ___
72
65
73
6
40
88.9
49
25.4
74
0
49
-12.7
74
0
49
25.4
74
0
49
-12.7
74
0
49
0
74
0
49
-12.7
74
0
0
LTYPE
5
41
330
5
100
AcDbSymbolTableRecord
100
AcDbLinetypeTableRecord
2
CENTER
70
0
3
Center ____ _ ____ _ ____ _ ____ _ ____ _ ____
72
65
73
4
40
50.8
49
31.75
74
0
49
-6.35
74
0
49
6.35
74
0
49
-6.35
74
0
0
LTYPE
5
42
330
5
100
AcDbSymbolTableRecord
100
AcDbLinetypeTableRecord
2
CENTER2
70
0
3
Center (.5x) ___ _ ___ _ ___ _ ___ _ ___ _ ___
72
65
73
4
40
28.575
49
19.05
74
0
49
-3.175
74
0
49
3.175
74
0
49
-3.175
74
0
0
LTYPE
5
43
330
5
100
AcDbSymbolTableRecord
100
AcDbLinetypeTableRecord
2
CENTERX2
70
0
3
Center (2x) ________  __  ________  __  _____
72
65
73
4
40
101.6
49
63.5
74
0
49
-12.7
74
0
49
12.7
74
0
49
-12.7
74
0
0
ENDTAB
0
TABLE
2
LAYER
5
2
330
0
100
AcDbSymbolTable
70
1
0
LAYER
5
10
330
2
100
AcDbSymbolTableRecord
100
AcDbLayerTableRecord
2
0
70
0
62
9
6
CONTINUOUS
370
-3
390
F
0
LAYER
5
44
330
2
100
AcDbSymbolTableRecord
100
AcDbLayerTableRecord
2
NASLabels
70
0
62
2
6
CONTINUOUS
370
30
390
F
0
LAYER
5
45
330
2
100
AcDbSymbolTableRecord
100
AcDbLayerTableRecord
2
functionLabels
70
0
62
20
420
16725815
6
CONTINUOUS
370
30
390
F
0
LAYER
5
46
330
2
100
AcDbSymbolTableRecord
100
AcDbLayerTableRecord
2
keyLabels
70
0
62
91
420
6487895
6
CONTINUOUS
370
50
390
F
0
LAYER
5
47
330
2
100
AcDbSymbolTableRecord
100
AcDbLayerTableRecord
2
keyMask
70
0
62
251
420
5263440
6
CONTINUOUS
370
0
390
F
0
LAYER
5
48
330
2
100
AcDbSymbolTableRecord
100
AcDbLayerTableRecord
2
led
70
0
62
255
420
16711422
6
CONTINUOUS
370
40
390
F
0
LAYER
5
49
330
2
100
AcDbSymbolTableRecord
100
AcDbLayerTableRecord
2
thumbLabels
70
0
62
255
420
16711422
6
CONTINUOUS
370
40
390
F
0
ENDTAB
0
TABLE
2
STYLE
5
3
330
0
100
AcDbSymbolTable
70
3
0
STYLE
5
4A
330
2
100
AcDbSymbolTableRecord
100
AcDbTextStyleTableRecord
2
unicode
70
0
40
0
41
1
50
0
71
0
42
1
3
unicode
4

0
STYLE
5
4B
330
2
100
AcDbSymbolTableRecord
100
AcDbTextStyleTableRecord
2
romans
70
0
40
0
41
1
50
0
71
0
42
1
3
romans
4

0
STYLE
5
4C
330
2
100
AcDbSymbolTableRecord
100
AcDbTextStyleTableRecord
2
Standard
70
0
40
0
41
1
50
0
71
0
42
1
3
txt
4

0
ENDTAB
0
TABLE
2
VIEW
5
6
330
0
100
AcDbSymbolTable
70
0
0
ENDTAB
0
TABLE
2
UCS
5
7
330
0
100
AcDbSymbolTable
70
0
0
ENDTAB
0
TABLE
2
APPID
5
9
330
0
100
AcDbSymbolTable
70
1
0
APPID
5
12
330
9
100
AcDbSymbolTableRecord
100
AcDbRegAppTableRecord
2
ACAD
70
0
0
ENDTAB
0
TABLE
2
DIMSTYLE
5
A
330
0
100
AcDbSymbolTable
70
1
100
AcDbDimStyleTable
71
1
0
DIMSTYLE
105
4D
330
A
100
AcDbSymbolTableRecord
100
AcDbDimStyleTableRecord
2
Standard
70
0
40
1
41
2.5
42
0.625
43
0.38
44
1.25
45
0
46
0
47
0
48
0
140
2.5
141
0.09
142
0
143
25.4
144
1
145
0
146
1
147
0.625
148
0
71
0
72
0
73
0
74
1
75
0
76
0
77
0
78
0
79
0
170
0
171
2
172
0
173
0
174
0
175
0
176
0
177
0
178
0
179
0
271
4
272
4
273
2
274
2
275
0
276
0
277
2
278
46
279
0
280
0
281
0
282
0
283
1
284
0
285
0
286
0
288
0
289
3
340
Standard
341

371
-2
372
-2
0
ENDTAB
0
TABLE
2
BLOCK_RECORD
5
1
330
0
100
AcDbSymbolTable
70
2
0
BLOCK_RECORD
5
1F
330
1
100
AcDbSymbolTableRecord
100
AcDbBlockTableRecord
2
*Model_Space
70
0
280
1
281
0
0
BLOCK_RECORD
5
1E
330
1
100
AcDbSymbolTableRecord
100
AcDbBlockTableRecord
2
*Paper_Space
70
0
280
1
281
0
0
BLOCK_RECORD
5
4E
330
1
100
AcDbSymbolTableRecord
100
AcDbBlockTableRecord
2
keyMask
70
0
280
1
281
0
0
BLOCK_RECORD
5
51
330
1
100
AcDbSymbolTableRecord
100
AcDbBlockTableRecord
2
Thumb
70
0
280
1
281
0
0
ENDTAB
0
ENDSEC
0
SECTION
2
BLOCKS
0
BLOCK
5
20
330
1F
100
AcDbEntity
8
0
100
AcDbBlockBegin
2
*Model_Space
70
0
10
0
20
0
30
0
3
*Model_Space
1

0
ENDBLK
5
21
330
1F
100
AcDbEntity
8
0
100
AcDbBlockEnd
0
BLOCK
5
1C
330
1B
100
AcDbEntity
8
0
100
AcDbBlockBegin
2
*Paper_Space
70
0
10
0
20
0
30
0
3
*Paper_Space
1

0
ENDBLK
5
1D
330
1F
100
AcDbEntity
8
0
100
AcDbBlockEnd
0
BLOCK
5
4F
330
4E
100
AcDbEntity
8
0
100
AcDbBlockBegin
2
keyMask
70
0
10
0
20
0
3
keyMask
1

0
HATCH
5
54
100
AcDbEntity
8
keyMask
6
ByLayer
62
256
370
-1
100
AcDbHatch
10
0
20
0
30
0
210
0
220
0
230
1
2
SOLID
70
1
71
0
91
1
92
0
93
8
72
1
10
-11.5648392361
20
-10.6752362179
11
-6.57228180916
21
-6.06672166999
72
2
10
-7.25056192158
20
-5.33191822442
40
1.00000000726
50
312.709390329
51
36.330177368
73
1
72
2
10
4.64181945237e-06
20
5.54361240089e-12
40
8.00000373954
50
143.670019695
51
216.330019695
73
0
72
2
10
-7.25056191189
20
5.33191822537
40
1
50
323.670137384
51
47.2906100423
73
1
72
1
10
-6.57228180915
20
6.06672166999
11
-11.5648425993
21
10.6752393224
72
2
10
-12.2431226513
20
9.94043566823
40
1.00000011954
50
47.2906203252
51
159.954049747
73
1
72
2
10
15.000028781
20
4.83448631757e-12
40
30.0000270374
50
159.954068931
51
200.045950253
73
1
72
2
10
-12.2431214068
20
-9.94043053284
40
1.00000304897
50
200.046777748
51
312.709389957
73
1
97
0
75
0
76
1
98
0
0
HATCH
5
55
100
AcDbEntity
8
keyMask
6
ByLayer
62
256
370
-1
100
AcDbHatch
10
0
20
0
30
0
210
0
220
0
230
1
2
SOLID
70
1
71
0
91
1
92
0
93
8
72
2
10
7.25056600682
20
5.33191783248
40
1.0000030662
50
132.70954709
51
216.330019749
73
1
72
2
10
-2.31627444336e-06
20
-3.16856519677e-12
40
8.00000186603
50
323.670009721
51
36.3300099209
73
0
72
2
10
7.25056732035
20
-5.33191770646
40
1.00000404975
50
143.670187787
51
227.290610042
73
1
72
1
10
6.57228447076
20
-6.06672412686
11
11.5648427679
21
-10.675239478
72
2
10
12.2431226141
20
-9.94043551482
40
1.00000020705
50
227.290640998
51
339.954049747
73
1
72
2
10
-14.9999999999
20
6.85879199981e-11
40
30
50
339.95405034
51
20.045950253
73
1
72
2
10
12.2431227021
20
9.94043587777
40
1.00000000003
50
20.0459502555
51
132.709389959
73
1
72
1
10
11.5648425993
20
10.6752393224
11
6.57228180916
21
6.06672166999
97
0
75
0
76
1
98
0
0
HATCH
5
56
100
AcDbEntity
8
keyMask
6
ByLayer
62
256
370
-1
100
AcDbHatch
10
0
20
0
30
0
210
0
220
0
230
1
2
SOLID
70
1
71
0
91
1
92
0
93
8
72
1
10
10.6752393224
20
-11.5648425993
11
6.06672166999
21
-6.57228180916
72
2
10
5.33191783117
20
-7.25056602047
40
1.00000307642
50
42.7095476139
51
126.330019749
73
1
72
2
10
-5.56561580626e-12
20
4.64460905381e-06
40
8.00000374179
50
53.6700196652
51
126.330019749
73
0
72
2
10
-5.33191822537
20
-7.25056191188
40
0.999999999998
50
53.6701379073
51
137.290610043
73
1
72
1
10
-6.06672166999
20
-6.57228180915
11
-10.675239478
21
-11.5648427679
72
2
10
-9.94043530346
20
-12.2431225629
40
1.00000032762
50
137.290651368
51
249.954049747
73
1
72
2
10
6.85984090204e-11
20
15.0000000001
40
30.0000000001
50
249.954050686
51
290.045950253
73
1
72
2
10
9.94043587777
20
-12.2431227021
40
1.00000000003
50
290.045950255
51
42.7093899595
73
1
97
0
75
0
76
1
98
0
0
HATCH
5
57
100
AcDbEntity
8
keyMask
6
ByLayer
62
256
370
-1
100
AcDbHatch
10
0
20
0
30
0
210
0
220
0
230
1
2
SOLID
70
1
71
0
91
1
92
0
93
8
72
2
10
-5.33191822535
20
7.2505619119
40
1.00000000001
50
222.709389957
51
306.330177405
73
1
72
2
10
5.5628525726e-12
20
-4.64460905736e-06
40
8.00000374179
50
233.670019665
51
306.330019749
73
0
72
2
10
5.33191822537
20
7.25056191188
40
0.999999999998
50
233.670137907
51
317.290610043
73
1
72
1
10
6.06672166999
20
6.57228180915
11
10.675239478
21
11.5648427679
72
2
10
9.94043575884
20
12.2431226732
40
1.00000006785
50
317.290629025
51
69.9540837631
73
1
72
2
10
5.03393125253e-12
20
-15.0000287689
40
30.000027026
50
69.9540699089
51
110.045950253
73
1
72
2
10
-9.94043053284
20
12.2431214068
40
1.00000304897
50
110.046777511
51
222.709389957
73
1
72
1
10
-10.6752362179
20
11.5648392361
11
-6.06672166999
21
6.57228180916
97
0
75
0
76
1
98
0
0
HATCH
5
58
100
AcDbEntity
8
keyMask
6
ByLayer
62
256
370
-1
100
AcDbHatch
10
0
20
0
30
0
210
0
220
0
230
1
2
SOLID
70
1
71
0
91
1
92
0
93
1
72
2
10
0
20
0
40
7
50
0
51
360
73
1
97
0
75
0
76
1
98
0
0
CIRCLE
5
59
100
AcDbEntity
8
keyMask
6
ByLayer
62
256
370
-1
100
AcDbCircle
10
0
20
0
40
7
0
LWPOLYLINE
5
5A
100
AcDbEntity
8
keyMask
6
ByLayer
62
256
370
-1
100
AcDbPolyline
90
8
70
1
43
0
10
-11.5648392361
20
-10.6752362179
10
-6.57228180916
20
-6.06672166999
42
0.381966797477
10
-6.4449455553
20
-4.73948064552
42
-0.328106508078
10
-6.44494229694
20
4.73948507639
42
0.381965225598
10
-6.57228180915
20
6.06672166999
10
-11.5648425993
20
10.6752393224
42
0.535428313957
10
-13.1825407878
20
10.2832093602
42
0.176740382561
10
-13.1825373447
20
-10.2832187965
42
0.535423725953
0
LWPOLYLINE
5
5B
100
AcDbEntity
8
keyMask
6
ByLayer
62
256
370
-1
100
AcDbPolyline
90
8
70
1
43
0
10
-6.06672166999
20
6.57228180916
42
0.381966799521
10
-4.73948065022
20
6.44494555184
42
-0.328106508482
10
4.73948508375
20
6.44494229152
42
0.381965222981
10
6.06672166999
20
6.57228180915
10
10.675239478
20
11.5648427679
42
0.53542845609
10
10.2832088753
20
13.1825409647
42
0.176740378162
10
-10.2832187926
20
13.1825373461
42
0.535423727288
10
-10.6752362179
20
11.5648392361
0
LWPOLYLINE
5
5C
100
AcDbEntity
8
keyMask
6
ByLayer
62
256
370
-1
100
AcDbPolyline
90
8
70
1
43
0
10
6.57228180916
20
6.06672166999
42
0.3819652256
10
6.44494554642
20
4.73948065759
42
-0.328106509045
10
6.44494392168
20
-4.73948286699
42
0.381964973586
10
6.57228447076
20
-6.06672412686
10
11.5648427679
20
-10.675239478
42
0.535428197896
10
13.1825408328
20
-10.2832092367
42
0.176740466212
10
13.1825407263
20
10.2832095288
42
0.535428371682
10
11.5648425993
20
10.6752393224
0
LWPOLYLINE
5
5D
100
AcDbEntity
8
keyMask
6
ByLayer
62
256
370
-1
100
AcDbPolyline
90
8
70
1
43
0
10
10.6752393224
20
-11.5648425993
10
6.06672166999
20
-6.57228180916
42
0.381965222979
10
4.73948065022
20
-6.44494555184
42
-0.328106508482
10
-4.73948508375
20
-6.44494229152
42
0.381965222981
10
-6.06672166999
20
-6.57228180915
10
-10.675239478
20
-11.5648427679
42
0.535428139674
10
-10.2832090667
20
-13.1825408949
42
0.176740464656
10
10.2832095288
20
-13.1825407263
42
0.535428371686
0
ENDBLK
5
50
330
4E
100
AcDbEntity
8
0
100
AcDbBlockEnd
0
BLOCK
5
52
330
51
100
AcDbEntity
8
0
100
AcDbBlockBegin
2
Thumb
70
0
10
0
20
0
3
Thumb
1

0
HATCH
5
5E
100
AcDbEntity
8
keyMask
6
ByLayer
62
256
370
-1
100
AcDbHatch
10
0
20
0
30
0
210
0
220
0
230
1
2
SOLID
70
1
71
0
91
1
92
0
93
8
72
1
10
-31
20
-15
11
-31
21
-2.588403349
72
2
10
-30
20
-2.588403349
40
1
50
180
51
240.945395901
73
0
72
1
10
-30.4856429312
20
-1.71424607288
11
-23.4856429312
21
2.17464281601
72
2
10
-23
20
1.30048553989
40
1
50
240.945395901
51
360
73
0
72
1
10
-22
20
1.30048553989
11
-22
21
-15
72
2
10
-23
20
-15
40
1
50
360
51
90
73
0
72
1
10
-23
20
-16
11
-30
21
-16
72
2
10
-30
20
-15
40
1
50
90
51
180
73
0
97
0
75
0
76
1
98
0
0
HATCH
5
5F
100
AcDbEntity
8
keyMask
6
ByLayer
62
256
370
-1
100
AcDbHatch
10
0
20
0
30
0
210
0
220
0
230
1
2
SOLID
70
1
71
0
91
1
92
0
93
8
72
1
10
-18.7441038313
20
17
11
-25.3561808548
21
17
72
2
10
-25.3561808548
20
16
40
1
50
90
51
155.869840788
73
1
72
2
10
26.7857142857
20
-7.35714285714
40
58.1343447612
50
155.869840788
51
171.757609253
73
1
72
2
10
-29.7584575388
20
0.833704716322
40
1
50
171.757609253
51
299.054604099
73
1
72
1
10
-29.2728146076
20
-0.0404525597992
11
-22.4092521217
21
3.77263771017
72
2
10
-22.8948950529
20
4.6467949863
40
1
50
299.054604099
51
348.881524059
73
1
72
2
10
15.1666666667
20
-2.83333333333
40
37.7896223262
50
191.118475941
51
209.046878006
73
0
72
2
10
-18.7441038313
20
16
40
1
50
330.953121994
51
90
73
1
97
0
75
0
76
1
98
0
0
HATCH
5
60
100
AcDbEntity
8
keyMask
6
ByLayer
62
256
370
-1
100
AcDbHatch
10
0
20
0
30
0
210
0
220
0
230
1
2
SOLID
70
1
71
0
91
1
92
0
93
9
72
2
10
-0.66939236001
20
-3
40
1
50
270
51
2.61684904339
73
1
72
2
10
-99.1281498297
20
-7.5
40
99.5615387587
50
2.61684904339
51
14.2456059204
73
1
72
2
10
-99.1281498297
20
-7.5
40
99.5615387587
50
345.75439408
51
346.206120368
73
0
72
2
10
-3.40915003094
20
16
40
1
50
13.793879632
51
90
73
1
72
1
10
-3.40915003094
20
17
11
-10.9397005385
21
17
72
2
10
-10.9397005385
20
16
40
1
50
90
51
207.470891695
73
1
72
2
10
-45.3340321827
20
-1.88235294118
40
37.765301443
50
332.529108305
51
1.65213043452
73
0
72
2
10
-6.58484559744
20
-3
40
1
50
178.347869565
51
270
73
1
72
1
10
-6.58484559744
20
-4
11
-0.66939236001
21
-4
97
0
75
0
76
1
98
0
0
HATCH
5
61
100
AcDbEntity
8
keyMask
6
ByLayer
62
256
370
-1
100
AcDbHatch
10
0
20
0
30
0
210
0
220
0
230
1
2
SOLID
70
1
71
0
91
1
92
0
93
9
72
1
10
-9.44404086266
20
1
11
-9.44404086266
21
-14
72
2
10
-11.4440408627
20
-14
40
2
50
360
51
90
73
0
72
1
10
-11.4440408627
20
-16
11
-18.4440408627
21
-16
72
2
10
-18.4440408627
20
-14
40
2
50
90
51
180
73
0
72
1
10
-20.4440408627
20
-14
11
-20.4440408627
21
1
72
2
10
13.472625804
20
-0.583333333333
40
33.9536039651
50
182.672801059
51
213.183038465
73
0
72
2
10
-43.3607075293
20
-0.583333333333
40
33.9536039651
50
326.816961535
51
357.327198941
73
0
72
2
10
-43.3607075293
20
-0.583333333333
40
33.9536039651
50
2.672801059
51
33.183038465
73
1
72
2
10
-43.3607075293
20
-0.583333333333
40
33.9536039651
50
326.816961535
51
357.327198941
73
0
97
0
75
0
76
1
98
0
0
LWPOLYLINE
5
62
100
AcDbEntity
8
keyMask
6
ByLayer
62
256
370
-1
100
AcDbPolyline
90
8
70
1
43
0
10
-31
20
-15
10
-31
20
-2.588403349
42
-0.272375344145
10
-30.4856429312
20
-1.71424607288
10
-23.4856429312
20
2.17464281601
42
-0.571863215681
10
-22
20
1.30048553989
10
-22
20
-15
42
-0.414213562373
10
-23
20
-16
10
-30
20
-16
42
-0.414213562373
0
LWPOLYLINE
5
63
100
AcDbEntity
8
keyMask
6
ByLayer
62
256
370
-1
100
AcDbPolyline
90
8
70
1
43
0
10
-18.7441038313
20
17
10
-25.3561808548
20
17
42
0.295595840832
10
-26.2687999696
20
16.4088108992
42
0.0694347317723
10
-30.7481279737
20
0.977065904898
42
0.620612342197
10
-29.2728146076
20
-0.0404525597992
10
-22.4092521217
20
3.77263771017
42
0.220902473812
10
-21.9136645217
20
4.45395659626
42
-0.0783873745922
10
-17.8698810762
20
15.5144749496
42
0.571818480533
0
LWPOLYLINE
5
64
100
AcDbEntity
8
keyMask
6
ByLayer
62
256
370
-1
100
AcDbPolyline
90
10
70
1
43
0
10
-9.44404086266
20
1
10
-9.44404086266
20
-14
42
-0.414213562373
10
-11.4440408627
20
-16
10
-18.4440408627
20
-16
42
-0.414213562373
10
-20.4440408627
20
-14
10
-20.4440408627
20
1
42
-0.133918083664
10
-14.9440408627
20
18
42
-0.13755506998
10
-14.9440408627
20
18
42
-1.63312393532e+16
10
-14.9440408627
20
18
42
-1.63312393532e+16
10
-14.9440408627
20
18
42
-0.133918083664
0
ENDBLK
5
53
330
51
100
AcDbEntity
8
0
100
AcDbBlockEnd
0
ENDSEC
0
SECTION
2
ENTITIES
0
HATCH
5
65
100
AcDbEntity
8
0
6
ByLayer
62
256
370
-1
100
AcDbHatch
10
0
20
0
30
0
210
0
220
0
230
1
2
SOLID
70
1
71
0
91
1
92
0
93
18
72
1
10
172
20
-100
11
172
21
-58
72
2
10
168
20
-58
40
4
50
9.26177523242e-12
51
90
73
1
72
1
10
168
20
-54
11
161
21
-54
72
1
10
161
20
-54
11
161
21
-41
72
2
10
157
20
-41
40
4
50
9.26177523242e-12
51
90
73
1
72
1
10
157
20
-37
11
35
21
-37
72
2
10
35
20
-41
40
4
50
90
51
180
73
1
72
1
10
31
20
-41
11
31
21
-57
72
1
10
31
20
-57
11
4
21
-57
72
2
10
4
20
-61
40
4
50
90
51
180
73
1
72
1
10
-8.881784197e-16
20
-61
11
0
21
-96
72
1
10
0
20
-96
11
26
21
-96
72
1
10
26
20
-96
11
71
21
-70
72
1
10
71
20
-70
11
93
21
-70
72
1
10
93
20
-70
11
140.420871043
21
-88.0199309961
72
2
10
139
20
-91.7590653181
40
3.99999999978
50
290.806791018
51
5.60469712636e-09
73
0
72
1
10
143
20
-91.7590653185
11
143
21
-100
72
1
10
143
20
-100
11
172
21
-100
97
0
75
0
76
1
98
0
0
HATCH
5
66
100
AcDbEntity
8
led
6
ByLayer
62
256
370
-1
100
AcDbHatch
10
0
20
0
30
0
210
0
220
0
230
1
2
SOLID
70
1
71
0
91
1
92
0
93
1
72
2
10
153
20
-54
40
1
50
0
51
360
73
1
97
0
75
0
76
1
98
0
0
HATCH
5
67
100
AcDbEntity
8
led
6
ByLayer
62
256
370
-1
100
AcDbHatch
10
0
20
0
30
0
210
0
220
0
230
1
2
SOLID
70
1
71
0
91
1
92
0
93
1
72
2
10
153
20
-47
40
1
50
0
51
360
73
1
97
0
75
0
76
1
98
0
0
HATCH
5
68
100
AcDbEntity
8
led
6
ByLayer
62
256
370
-1
100
AcDbHatch
10
0
20
0
30
0
210
0
220
0
230
1
2
SOLID
70
1
71
0
91
1
92
0
93
1
72
2
10
153
20
-61
40
1
50
0
51
360
73
1
97
0
75
0
76
1
98
0
0
HATCH
5
69
100
AcDbEntity
8
led
6
ByLayer
62
256
370
-1
100
AcDbHatch
10
0
20
0
30
0
210
0
220
0
230
1
2
SOLID
70
1
71
0
91
1
92
0
93
1
72
2
10
153
20
-40.5
40
1
50
0
51
360
73
1
97
0
75
0
76
1
98
0
0
HATCH
5
6A
100
AcDbEntity
8
0
6
ByLayer
62
256
370
-1
100
AcDbHatch
10
0
20
0
30
0
210
0
220
0
230
1
2
SOLID
70
1
71
0
91
1
92
0
93
1
72
2
10
19
20
39
40
1
50
0
51
360
73
1
97
0
75
0
76
1
98
0
0
HATCH
5
6B
100
AcDbEntity
8
0
6
ByLayer
62
256
370
-1
100
AcDbHatch
10
0
20
0
30
0
210
0
220
0
230
1
2
SOLID
70
1
71
0
91
1
92
0
93
18
72
1
10
0
20
0
11
-8.881784197e-16
21
42
72
2
10
4
20
42
40
4
50
180
51
270
73
0
72
1
10
4
20
46
11
11
21
46
72
1
10
11
20
46
11
11
21
59
72
2
10
15
20
59
40
4
50
180
51
270
73
0
72
1
10
15
20
63
11
137
21
63
72
2
10
137
20
59
40
4
50
270
51
360
73
0
72
1
10
141
20
59
11
141
21
43
72
1
10
141
20
43
11
168
21
43
72
2
10
168
20
39
40
4
50
270
51
360
73
0
72
1
10
172
20
39
11
172
21
4
72
1
10
172
20
4
11
146
21
4
72
1
10
146
20
4
11
101
21
30
72
1
10
101
20
30
11
79
21
30
72
1
10
79
20
30
11
31.5791289575
21
11.9800690039
72
2
10
33
20
8.24093468153
40
4.00000000003
50
110.806791013
51
180
73
1
72
1
10
29
20
8.2409346815
11
29
21
0
72
1
10
29
20
0
11
0
21
0
97
0
75
0
76
1
98
0
0
HATCH
5
6C
100
AcDbEntity
8
led
6
ByLayer
62
256
370
-1
100
AcDbHatch
10
0
20
0
30
0
210
0
220
0
230
1
2
SOLID
70
1
71
0
91
1
92
0
93
1
72
2
10
19
20
46
40
1
50
0
51
360
73
1
97
0
75
0
76
1
98
0
0
CIRCLE
5
6D
100
AcDbEntity
8
led
6
ByLayer
62
256
370
-1
100
AcDbCircle
10
19
20
46
40
1
0
CIRCLE
5
6E
100
AcDbEntity
8
led
6
ByLayer
62
256
370
-1
100
AcDbCircle
10
19
20
53
40
1
0
CIRCLE
5
6F
100
AcDbEntity
8
led
6
ByLayer
62
256
370
-1
100
AcDbCircle
10
19
20
16
40
1
0
CIRCLE
5
70
100
AcDbEntity
8
led
6
ByLayer
62
256
370
-1
100
AcDbCircle
10
19
20
23
40
1
0
INSERT
5
71
100
AcDbEntity
8
keyMask
6
ByLayer
62
256
370
-1
100
AcDbBlockReference
2
keyMask
10
56
20
44
30
0
41
1
42
1
43
0
50
0
70
1
71
1
44
0
45
0
0
INSERT
5
72
100
AcDbEntity
8
keyMask
6
ByLayer
62
256
370
-1
100
AcDbBlockReference
2
keyMask
10
91
20
46
30
0
41
1
42
1
43
0
50
0
70
1
71
1
44
1
45
1
0
INSERT
5
73
100
AcDbEntity
8
keyMask
6
ByLayer
62
256
370
-1
100
AcDbBlockReference
2
keyMask
10
123
20
40
30
0
41
1
42
1
43
0
50
0
70
1
71
1
44
1
45
1
0
INSERT
5
74
100
AcDbEntity
8
keyMask
6
ByLayer
62
256
370
-1
100
AcDbBlockReference
2
keyMask
10
155
20
26
30
0
41
1
42
1
43
0
50
0
70
1
71
1
44
1
45
1
0
MTEXT
5
75
100
AcDbEntity
8
keyLabels
6
ByLayer
62
256
370
-1
100
AcDbMText
10
55
20
42
30
0
40
4
41
2.66666666667
71
7
72
1
1
H
7
romans
210
0
220
0
230
1
50
0
73
2
44
1
0
MTEXT
5
76
100
AcDbEntity
8
keyLabels
6
ByLayer
62
256
370
-1
100
AcDbMText
10
90
20
44
30
0
40
4
41
2.66666666667
71
7
72
1
1
T
7
romans
210
0
220
0
230
1
50
0
73
2
44
1
0
MTEXT
5
77
100
AcDbEntity
8
keyLabels
6
ByLayer
62
256
370
-1
100
AcDbMText
10
122
20
38
30
0
40
4
41
2.66666666667
71
7
72
1
1
N
7
romans
210
0
220
0
230
1
50
0
73
2
44
1
0
MTEXT
5
78
100
AcDbEntity
8
keyLabels
6
ByLayer
62
256
370
-1
100
AcDbMText
10
154
20
24
30
0
40
4
41
2.66666666667
71
7
72
1
1
S
7
romans
210
0
220
0
230
1
50
0
73
2
44
1
0
MTEXT
5
79
100
AcDbEntity
8
keyLabels
6
ByLayer
62
256
370
-1
100
AcDbMText
10
55
20
53
30
0
40
4
41
2.85714222222
71
7
72
1
1
G
7
romans
210
0
220
0
230
1
50
0
73
2
44
1
0
MTEXT
5
7A
100
AcDbEntity
8
keyLabels
6
ByLayer
62
256
370
-1
100
AcDbMText
10
90
20
55
30
0
40
4
41
2.85714222222
71
7
72
1
1
C
7
romans
210
0
220
0
230
1
50
0
73
2
44
1
0
MTEXT
5
7B
100
AcDbEntity
8
keyLabels
6
ByLayer
62
256
370
-1
100
AcDbMText
10
122
20
49
30
0
40
4
41
2.66666666667
71
7
72
1
1
R
7
romans
210
0
220
0
230
1
50
0
73
2
44
1
0
MTEXT
5
7C
100
AcDbEntity
8
keyLabels
6
ByLayer
62
256
370
-1
100
AcDbMText
10
44
20
42
30
0
40
4
41
2.66666666667
71
7
72
1
1
D
7
romans
210
0
220
0
230
1
50
0
73
2
44
1
0
MTEXT
5
7D
100
AcDbEntity
8
keyLabels
6
ByLayer
62
256
370
-1
100
AcDbMText
10
111
20
38
30
0
40
4
41
2.66666666667
71
7
72
1
1
B
7
romans
210
0
220
0
230
1
50
0
73
2
44
1
0
MTEXT
5
7E
100
AcDbEntity
8
keyLabels
6
ByLayer
62
256
370
-1
100
AcDbMText
10
54
20
31
30
0
40
4
41
3.04761777778
71
7
72
1
1
M
7
romans
210
0
220
0
230
1
50
0
73
2
44
1
0
MTEXT
5
7F
100
AcDbEntity
8
keyLabels
6
ByLayer
62
256
370
-1
100
AcDbMText
10
46
20
49
30
0
40
3
41
0
71
7
72
1
1

7
romans
210
0
220
0
230
1
50
0
73
2
44
1
0
MTEXT
5
80
100
AcDbEntity
8
keyLabels
6
ByLayer
62
256
370
-1
100
AcDbMText
10
154
20
13
30
0
40
4
41
2.66666666667
71
7
72
1
1
Z
7
romans
210
0
220
0
230
1
50
0
73
2
44
1
0
MTEXT
5
81
100
AcDbEntity
8
keyLabels
6
ByLayer
62
256
370
-1
100
AcDbMText
10
122
20
27
30
0
40
4
41
3.04761777778
71
7
72
1
1
V
7
romans
210
0
220
0
230
1
50
0
73
2
44
1
0
MTEXT
5
82
100
AcDbEntity
8
keyLabels
6
ByLayer
62
256
370
-1
100
AcDbMText
10
90
20
33
30
0
40
4
41
3.80952444444
71
7
72
1
1
W
7
romans
210
0
220
0
230
1
50
0
73
2
44
1
0
MTEXT
5
83
100
AcDbEntity
8
functionLabels
6
ByLayer
62
256
370
-1
100
AcDbMText
10
60
20
55
30
0
40
3
41
1
71
7
72
1
1
↑
7
unicode
210
0
220
0
230
1
50
0
73
2
44
1
0
MTEXT
5
84
100
AcDbEntity
8
functionLabels
6
ByLayer
62
256
370
-1
100
AcDbMText
10
49
20
31
30
0
40
3
41
1
71
7
72
1
1
↓
7
unicode
210
0
220
0
230
1
50
0
73
2
44
1
0
MTEXT
5
85
100
AcDbEntity
8
functionLabels
6
ByLayer
62
256
370
-1
100
AcDbMText
10
66
20
38
30
0
40
3
41
2.66666666667
71
7
72
1
1
→
7
unicode
210
0
220
0
230
1
50
0
73
2
44
1
0
MTEXT
5
86
100
AcDbEntity
8
functionLabels
6
ByLayer
62
256
370
-1
100
AcDbMText
10
43
20
49
30
0
40
3
41
2.66666666667
71
7
72
1
1
←
7
unicode
210
0
220
0
230
1
50
0
73
2
44
1
0
CIRCLE
5
87
100
AcDbEntity
8
led
6
ByLayer
62
256
370
-1
100
AcDbCircle
10
19
20
39
40
1
0
LWPOLYLINE
5
88
100
AcDbEntity
8
0
6
ByLayer
62
256
370
-1
100
AcDbPolyline
90
19
70
0
43
0
10
0
20
0
10
-8.881784197e-16
20
42
42
-0.414213562373
10
4
20
46
10
11
20
46
10
11
20
59
42
-0.414213562373
10
15
20
63
10
137
20
63
42
-0.414213562373
10
141
20
59
10
141
20
43
10
168
20
43
42
-0.414213562373
10
172
20
39
10
172
20
4
10
146
20
4
10
101
20
30
10
79
20
30
10
31.5791289575
20
11.9800690039
42
0.311432810312
10
29
20
8.2409346815
10
29
20
0
10
0
20
0
0
CIRCLE
5
89
100
AcDbEntity
8
led
6
ByLayer
62
256
370
-1
100
AcDbCircle
10
19
20
59.5
40
1
0
MTEXT
5
8A
100
AcDbEntity
8
keyLabels
6
ByLayer
62
256
370
-1
100
AcDbMText
10
-46
20
-51
30
0
40
3
41
0
71
9
72
1
1

7
romans
210
0
220
0
230
1
50
360
73
2
44
1
0
CIRCLE
5
8B
100
AcDbEntity
8
led
6
ByLayer
62
256
370
-1
100
AcDbCircle
10
153
20
-47
40
1
0
CIRCLE
5
8C
100
AcDbEntity
8
led
6
ByLayer
62
256
370
-1
100
AcDbCircle
10
153
20
-84
40
1
0
CIRCLE
5
8D
100
AcDbEntity
8
led
6
ByLayer
62
256
370
-1
100
AcDbCircle
10
153
20
-77
40
1
0
INSERT
5
8E
100
AcDbEntity
8
keyMask
6
ByLayer
62
256
370
-1
100
AcDbBlockReference
2
keyMask
10
116
20
-56
30
0
41
-1
42
1
43
0
50
0
70
1
71
1
44
0
45
0
0
INSERT
5
8F
100
AcDbEntity
8
keyMask
6
ByLayer
62
256
370
-1
100
AcDbBlockReference
2
keyMask
10
81
20
-54
30
0
41
-1
42
1
43
0
50
0
70
1
71
1
44
1
45
1
0
INSERT
5
90
100
AcDbEntity
8
keyMask
6
ByLayer
62
256
370
-1
100
AcDbBlockReference
2
keyMask
10
49
20
-60
30
0
41
-1
42
1
43
0
50
0
70
1
71
1
44
1
45
1
0
INSERT
5
91
100
AcDbEntity
8
keyMask
6
ByLayer
62
256
370
-1
100
AcDbBlockReference
2
keyMask
10
17
20
-74
30
0
41
-1
42
1
43
0
50
0
70
1
71
1
44
1
45
1
0
CIRCLE
5
92
100
AcDbEntity
8
led
6
ByLayer
62
256
370
-1
100
AcDbCircle
10
153
20
-61
40
1
0
LWPOLYLINE
5
93
100
AcDbEntity
8
0
6
ByLayer
62
256
370
-1
100
AcDbPolyline
90
19
70
0
43
0
10
172
20
-100
10
172
20
-58
42
0.414213562373
10
168
20
-54
10
161
20
-54
10
161
20
-41
42
0.414213562373
10
157
20
-37
10
35
20
-37
42
0.414213562373
10
31
20
-41
10
31
20
-57
10
4
20
-57
42
0.414213562373
10
-8.881784197e-16
20
-61
10
0
20
-96
10
26
20
-96
10
71
20
-70
10
93
20
-70
10
140.420871043
20
-88.0199309961
42
-0.311432810312
10
143
20
-91.7590653185
10
143
20
-100
10
172
20
-100
0
MTEXT
5
94
100
AcDbEntity
8
keyLabels
6
ByLayer
62
256
370
-1
100
AcDbMText
10
18
20
-76
30
0
40
4
41
3.04761777778
71
9
72
1
1
A
7
romans
210
0
220
0
230
1
50
360
73
2
44
1
0
MTEXT
5
95
100
AcDbEntity
8
keyLabels
6
ByLayer
62
256
370
-1
100
AcDbMText
10
82
20
-56
30
0
40
4
41
2.47619111111
71
9
72
1
1
E
7
romans
210
0
220
0
230
1
50
360
73
2
44
1
0
MTEXT
5
96
100
AcDbEntity
8
keyLabels
6
ByLayer
62
256
370
-1
100
AcDbMText
10
117
20
-58
30
0
40
4
41
2.66666666667
71
9
72
1
1
U
7
romans
210
0
220
0
230
1
50
360
73
2
44
1
0
MTEXT
5
97
100
AcDbEntity
8
keyLabels
6
ByLayer
62
256
370
-1
100
AcDbMText
10
50
20
-73
30
0
40
4
41
3.04761777778
71
9
72
1
1
Q
7
romans
210
0
220
0
230
1
50
360
73
2
44
1
0
MTEXT
5
98
100
AcDbEntity
8
keyLabels
6
ByLayer
62
256
370
-1
100
AcDbMText
10
82
20
-67
30
0
40
4
41
1.90476
71
9
72
1
1
J
7
romans
210
0
220
0
230
1
50
360
73
2
44
1
0
MTEXT
5
99
100
AcDbEntity
8
keyLabels
6
ByLayer
62
256
370
-1
100
AcDbMText
10
118
20
-69
30
0
40
4
41
2.66666666667
71
9
72
1
1
K
7
romans
210
0
220
0
230
1
50
360
73
2
44
1
0
MTEXT
5
9A
100
AcDbEntity
8
keyLabels
6
ByLayer
62
256
370
-1
100
AcDbMText
10
117
20
-47
30
0
40
4
41
2.66666666667
71
9
72
1
1
P
7
romans
210
0
220
0
230
1
50
360
73
2
44
1
0
MTEXT
5
9B
100
AcDbEntity
8
keyLabels
6
ByLayer
62
256
370
-1
100
AcDbMText
10
106
20
-58
30
0
40
4
41
3.04761777778
71
9
72
1
1
Y
7
romans
210
0
220
0
230
1
50
360
73
2
44
1
0
MTEXT
5
9C
100
AcDbEntity
8
keyLabels
6
ByLayer
62
256
370
-1
100
AcDbMText
10
29
20
-78
30
0
40
3
41
0
71
9
72
1
1

7
romans
210
0
220
0
230
1
50
360
73
2
44
1
0
MTEXT
5
9D
100
AcDbEntity
8
keyLabels
6
ByLayer
62
256
370
-1
100
AcDbMText
10
61
20
-62
30
0
40
4
41
2.66666666667
71
9
72
1
1
X
7
romans
210
0
220
0
230
1
50
360
73
2
44
1
0
MTEXT
5
9E
100
AcDbEntity
8
keyLabels
6
ByLayer
62
256
370
-1
100
AcDbMText
10
20
20
-87
30
0
40
3
41
5.14285866667
71
9
72
1
1
:/;
7
romans
210
0
220
0
230
1
50
360
73
2
44
1
0
MTEXT
5
9F
100
AcDbEntity
8
keyLabels
6
ByLayer
62
256
370
-1
100
AcDbMText
10
51
20
-51
30
0
40
3
41
7.14285766667
71
9
72
1
1
</,
7
romans
210
0
220
0
230
1
50
360
73
2
44
1
0
MTEXT
5
A0
100
AcDbEntity
8
NASLabels
6
ByLayer
62
256
370
-1
100
AcDbMText
10
8
20
-70
30
0
40
3
41
0
71
9
72
1
1

7
unicode
210
0
220
0
230
1
50
360
73
2
44
1
0
MTEXT
5
A1
100
AcDbEntity
8
keyLabels
6
ByLayer
62
256
370
-1
100
AcDbMText
10
19
20
-66
30
0
40
3
41
6.000001
71
9
72
1
1
"/'
7
romans
210
0
220
0
230
1
50
360
73
2
44
1
0
MTEXT
5
A2
100
AcDbEntity
8
keyLabels
6
ByLayer
62
256
370
-1
100
AcDbMText
10
127
20
-58
30
0
40
4
41
0
71
9
72
1
1
I
7
romans
210
0
220
0
230
1
50
360
73
2
44
1
0
MTEXT
5
A3
100
AcDbEntity
8
keyLabels
6
ByLayer
62
256
370
-1
100
AcDbMText
10
50
20
-62
30
0
40
4
41
3.04761777778
71
9
72
1
1
O
7
romans
210
0
220
0
230
1
50
360
73
2
44
1
0
MTEXT
5
A4
100
AcDbEntity
8
NASLabels
6
ByLayer
62
256
370
-1
100
AcDbMText
10
56
20
47
30
0
40
3
41
2
71
7
72
1
1
7
7
romans
210
0
220
0
230
1
50
0
73
2
44
1
0
MTEXT
5
A5
100
AcDbEntity
8
NASLabels
6
ByLayer
62
256
370
-1
100
AcDbMText
10
43
20
37
30
0
40
3
41
1.85714333333
71
7
72
1
1
6
7
romans
210
0
220
0
230
1
50
0
73
2
44
1
0
MTEXT
5
A6
100
AcDbEntity
8
NASLabels
6
ByLayer
62
256
370
-1
100
AcDbMText
10
51
20
57
30
0
40
4
41
1.90476
71
7
72
1
1
^
7
romans
210
0
220
0
230
1
50
0
73
2
44
1
0
MTEXT
5
A7
100
AcDbEntity
8
NASLabels
6
ByLayer
62
256
370
-1
100
AcDbMText
10
118
20
50
30
0
40
3
41
0.714286666667
71
7
72
1
1
{
7
romans
210
0
220
0
230
1
50
0
73
2
44
1
0
MTEXT
5
A8
100
AcDbEntity
8
keyLabels
6
ByLayer
62
256
370
-1
100
AcDbMText
10
66
20
42
30
0
40
4
41
2.47619111111
71
7
72
1
1
F
7
romans
210
0
220
0
230
1
50
0
73
2
44
1
0
MTEXT
5
A9
100
AcDbEntity
8
NASLabels
6
ByLayer
62
256
370
-1
100
AcDbMText
10
103
20
51
30
0
40
3
41
1
71
7
72
1
1
)
7
romans
210
0
220
0
230
1
50
0
73
2
44
1
0
MTEXT
5
AA
100
AcDbEntity
8
keyLabels
6
ByLayer
62
256
370
-1
100
AcDbMText
10
100
20
37
30
0
40
3
41
1
71
7
72
1
1
}\P)\P
7
romans
210
0
220
0
230
1
50
0
73
2
44
1
0
MTEXT
5
AB
100
AcDbEntity
8
keyLabels
6
ByLayer
62
256
370
-1
100
AcDbMText
10
81
20
41
30
0
40
3
41
1
71
7
72
1
1
{\P(
7
romans
210
0
220
0
230
1
50
0
73
2
44
1
0
MTEXT
5
AC
100
AcDbEntity
8
NASLabels
6
ByLayer
62
256
370
-1
100
AcDbMText
10
91
20
49
30
0
40
3
41
2
71
7
72
1
1
8
7
romans
210
0
220
0
230
1
50
0
73
2
44
1
0
MTEXT
5
AD
100
AcDbEntity
8
functionLabels
6
ByLayer
62
256
370
-1
100
AcDbMText
10
85
20
33
30
0
40
2
41
3.14285777778
71
7
72
1
1
Pg\PDn
7
romans
210
0
220
0
230
1
50
0
73
2
44
1
0
MTEXT
5
AE
100
AcDbEntity
8
NASLabels
6
ByLayer
62
256
370
-1
100
AcDbMText
10
110
20
33
30
0
40
3
41
2.57143
71
7
72
1
1
/
7
romans
210
0
220
0
230
1
50
0
73
2
44
1
0
MTEXT
5
AF
100
AcDbEntity
8
NASLabels
6
ByLayer
62
256
370
-1
100
AcDbMText
10
123
20
43
30
0
40
3
41
1.85714333333
71
7
72
1
1
9
7
romans
210
0
220
0
230
1
50
0
73
2
44
1
0
MTEXT
5
B0
100
AcDbEntity
8
keyLabels
6
ByLayer
62
255
420
16711422
370
-1
100
AcDbMText
10
133
20
32
30
0
40
2
41
1.33333333333
71
7
72
1
1
E\PN\PT\PE\PR
7
romans
210
0
220
0
230
1
50
0
73
2
44
1
0
MTEXT
5
B1
100
AcDbEntity
8
NASLabels
6
ByLayer
62
256
370
-1
100
AcDbMText
10
128
20
26
30
0
40
3
41
0.714286666667
71
7
72
1
1
}
7
romans
210
0
220
0
230
1
50
0
73
2
44
1
0
MTEXT
5
B2
100
AcDbEntity
8
keyLabels
6
ByLayer
62
256
370
-1
100
AcDbMText
10
143
20
22
30
0
40
3
41
2.57143
71
7
72
1
1
?\P/
7
romans
210
0
220
0
230
1
50
0
73
2
44
1
0
MTEXT
5
B3
100
AcDbEntity
8
NASLabels
6
ByLayer
62
256
370
-1
100
AcDbMText
10
160
20
12
30
0
40
3
41
1
71
7
72
1
1
]
7
romans
210
0
220
0
230
1
50
0
73
2
44
1
0
MTEXT
5
B4
100
AcDbEntity
8
keyLabels
6
ByLayer
62
256
370
-1
100
AcDbMText
10
155
20
35
30
0
40
4
41
2.28571555556
71
7
72
1
1
L
7
romans
210
0
220
0
230
1
50
0
73
2
44
1
0
MTEXT
5
B5
100
AcDbEntity
8
functionLabels
6
ByLayer
62
256
370
-1
100
AcDbMText
10
96
20
54
30
0
40
2
41
3.14285777778
71
7
72
1
1
Pg\PUp
7
romans
210
0
220
0
230
1
50
0
73
2
44
1
0
MTEXT
5
B6
100
AcDbEntity
8
NASLabels
6
ByLayer
62
256
370
-1
100
AcDbMText
10
154
20
29
30
0
40
3
41
2
71
7
72
1
1
0
7
romans
210
0
220
0
230
1
50
0
73
2
44
1
0
MTEXT
5
B7
100
AcDbEntity
8
NASLabels
6
ByLayer
62
256
370
-1
100
AcDbMText
10
150
20
35
30
0
40
3
41
1
71
7
72
1
1
[
7
romans
210
0
220
0
230
1
50
0
73
2
44
1
0
MTEXT
5
B8
100
AcDbEntity
8
NASLabels
6
ByLayer
62
256
370
-1
100
AcDbMText
10
78
20
38
30
0
40
3
41
1
71
7
72
1
1
(
7
romans
210
0
220
0
230
1
50
0
73
2
44
1
0
MTEXT
5
B9
100
AcDbEntity
8
functionLabels
6
ByLayer
62
256
370
-1
100
AcDbMText
10
18
20
-80
30
0
40
3
41
2.85714333333
71
9
72
1
1
f1
7
romans
210
0
220
0
230
1
50
360
73
2
44
1
0
MTEXT
5
BA
100
AcDbEntity
8
keyLabels
6
ByLayer
62
255
420
16711422
370
-1
100
AcDbMText
10
8
20
-75
30
0
40
2
41
5.04762
71
9
72
1
1
DEL
7
romans
210
0
220
0
230
1
50
360
73
2
44
1
0
MTEXT
5
BB
100
AcDbEntity
8
keyLabels
6
ByLayer
62
256
370
-1
100
AcDbMText
10
26
20
-77
30
0
40
4
41
3.42857333333
71
7
72
1
1
~\P`
7
romans
210
0
220
0
230
1
50
0
73
2
44
1
0
MTEXT
5
BC
100
AcDbEntity
8
NASLabels
6
ByLayer
62
256
370
-1
100
AcDbMText
10
49
20
-57
30
0
40
3
41
2
71
9
72
1
1
2
7
romans
210
0
220
0
230
1
50
360
73
2
44
1
0
MTEXT
5
BD
100
AcDbEntity
8
NASLabels
6
ByLayer
62
256
370
-1
100
AcDbMText
10
81
20
-51
30
0
40
3
41
2
71
9
72
1
1
3
7
romans
210
0
220
0
230
1
50
360
73
2
44
1
0
MTEXT
5
BE
100
AcDbEntity
8
NASLabels
6
ByLayer
62
256
370
-1
100
AcDbMText
10
116
20
-53
30
0
40
3
41
2.14285666667
71
9
72
1
1
4
7
romans
210
0
220
0
230
1
50
360
73
2
44
1
0
MTEXT
5
BF
100
AcDbEntity
8
NASLabels
6
ByLayer
62
256
370
-1
100
AcDbMText
10
129
20
-63
30
0
40
3
41
2
71
9
72
1
1
5
7
romans
210
0
220
0
230
1
50
360
73
2
44
1
0
MTEXT
5
C0
100
AcDbEntity
8
keyLabels
6
ByLayer
62
255
420
16711422
370
-1
100
AcDbMText
10
40
20
-61
30
0
40
2
41
5.33333333333
71
9
72
1
1
ESC
7
romans
210
0
220
0
230
1
50
360
73
2
44
1
0
MTEXT
5
C1
100
AcDbEntity
8
NASLabels
6
ByLayer
62
256
370
-1
100
AcDbMText
10
16
20
-71
30
0
40
3
41
0.714286666667
71
9
72
1
1
1
7
romans
210
0
220
0
230
1
50
360
73
2
44
1
0
MTEXT
5
C2
100
AcDbEntity
8
NASLabels
6
ByLayer
62
256
370
-1
100
AcDbMText
10
30
20
-81
30
0
40
3
41
2.57143
71
9
72
1
1
~
7
romans
210
0
220
0
230
1
50
360
73
2
44
1
0
MTEXT
5
C3
100
AcDbEntity
8
keyLabels
6
ByLayer
62
256
370
-1
100
AcDbMText
10
71
20
-56
30
0
40
4
41
0.380952444444
71
9
72
1
1
!
7
romans
210
0
220
0
230
1
50
360
73
2
44
1
0
MTEXT
5
C4
100
AcDbEntity
8
keyLabels
6
ByLayer
62
256
370
-1
100
AcDbMText
10
93
20
-56
30
0
40
4
41
4
71
9
72
1
1
@
7
romans
210
0
220
0
230
1
50
360
73
2
44
1
0
MTEXT
5
C5
100
AcDbEntity
8
NASLabels
6
ByLayer
62
256
370
-1
100
AcDbMText
10
69
20
-49
30
0
40
3
41
0.285714333333
71
9
72
1
1
!
7
romans
210
0
220
0
230
1
50
360
73
2
44
1
0
MTEXT
5
C6
100
AcDbEntity
8
functionLabels
6
ByLayer
62
256
370
-1
100
AcDbMText
10
69
20
-61
30
0
40
3
41
0.285714333333
71
7
72
1
1
!
7
romans
210
0
220
0
230
1
50
0
73
2
44
1
0
MTEXT
5
C7
100
AcDbEntity
8
functionLabels
6
ByLayer
62
256
370
-1
100
AcDbMText
10
129
20
-51
30
0
40
3
41
2.66666666667
71
9
72
1
1
→
7
unicode
210
0
220
0
230
1
50
360
73
2
44
1
0
MTEXT
5
C8
100
AcDbEntity
8
functionLabels
6
ByLayer
62
256
370
-1
100
AcDbMText
10
106
20
-62
30
0
40
3
41
2.66666666667
71
9
72
1
1
←
7
unicode
210
0
220
0
230
1
50
360
73
2
44
1
0
MTEXT
5
C9
100
AcDbEntity
8
functionLabels
6
ByLayer
62
256
370
-1
100
AcDbMText
10
111
20
-45
30
0
40
3
41
1
71
9
72
1
1
↑
7
unicode
210
0
220
0
230
1
50
360
73
2
44
1
0
MTEXT
5
CA
100
AcDbEntity
8
functionLabels
6
ByLayer
62
256
370
-1
100
AcDbMText
10
124
20
-69
30
0
40
3
41
1
71
9
72
1
1
↓
7
unicode
210
0
220
0
230
1
50
360
73
2
44
1
0
MTEXT
5
CB
100
AcDbEntity
8
functionLabels
6
ByLayer
62
256
370
-1
100
AcDbMText
10
51
20
-66
30
0
40
3
41
4.14285666667
71
9
72
1
1
f2
7
romans
210
0
220
0
230
1
50
360
73
2
44
1
0
MTEXT
5
CC
100
AcDbEntity
8
functionLabels
6
ByLayer
62
256
370
-1
100
AcDbMText
10
83
20
-60
30
0
40
3
41
4.14285666667
71
9
72
1
1
f3
7
romans
210
0
220
0
230
1
50
360
73
2
44
1
0
MTEXT
5
CD
100
AcDbEntity
8
functionLabels
6
ByLayer
62
256
370
-1
100
AcDbMText
10
43
20
-49
30
0
40
2
41
2.66666666667
71
9
72
1
1
f6
7
romans
210
0
220
0
230
1
50
360
73
2
44
1
0
MTEXT
5
CE
100
AcDbEntity
8
functionLabels
6
ByLayer
62
256
370
-1
100
AcDbMText
10
11
20
-63
30
0
40
2
41
2.76190444444
71
9
72
1
1
f5
7
romans
210
0
220
0
230
1
50
360
73
2
44
1
0
MTEXT
5
CF
100
AcDbEntity
8
functionLabels
6
ByLayer
62
256
370
-1
100
AcDbMText
10
23
20
-87
30
0
40
2
41
2.76190444444
71
7
72
1
1
f7
7
romans
210
0
220
0
230
1
50
0
73
2
44
1
0
MTEXT
5
D0
100
AcDbEntity
8
functionLabels
6
ByLayer
62
256
370
-1
100
AcDbMText
10
58
20
-73
30
0
40
2
41
2.76190444444
71
9
72
1
1
f8
7
romans
210
0
220
0
230
1
50
360
73
2
44
1
0
MTEXT
5
D1
100
AcDbEntity
8
functionLabels
6
ByLayer
62
256
370
-1
100
AcDbMText
10
89
20
-67
30
0
40
2
41
4.76190666667
71
9
72
1
1
End
7
romans
210
0
220
0
230
1
50
360
73
2
44
1
0
MTEXT
5
D2
100
AcDbEntity
8
functionLabels
6
ByLayer
62
256
370
-1
100
AcDbMText
10
55
20
38
30
0
40
3
41
4.14285666667
71
7
72
1
1
f5
7
romans
210
0
220
0
230
1
50
0
73
2
44
1
0
MTEXT
5
D3
100
AcDbEntity
8
functionLabels
6
ByLayer
62
256
370
-1
100
AcDbMText
10
89
20
40
30
0
40
3
41
4
71
7
72
1
1
f6
7
romans
210
0
220
0
230
1
50
0
73
2
44
1
0
MTEXT
5
D4
100
AcDbEntity
8
functionLabels
6
ByLayer
62
256
370
-1
100
AcDbMText
10
121
20
34
30
0
40
3
41
4.14285666667
71
7
72
1
1
f7
7
romans
210
0
220
0
230
1
50
0
73
2
44
1
0
MTEXT
5
D5
100
AcDbEntity
8
functionLabels
6
ByLayer
62
256
370
-1
100
AcDbMText
10
152
20
20
30
0
40
3
41
4.14285666667
71
7
72
1
1
f8
7
romans
210
0
220
0
230
1
50
0
73
2
44
1
0
MTEXT
5
D6
100
AcDbEntity
8
functionLabels
6
ByLayer
62
256
370
-1
100
AcDbMText
10
110
20
45
30
0
40
2
41
3.42857333333
71
7
72
1
1
Ins
7
romans
210
0
220
0
230
1
50
0
73
2
44
1
0
MTEXT
5
D7
100
AcDbEntity
8
keyLabels
6
ByLayer
62
256
370
-1
100
AcDbMText
10
84
20
-46
30
0
40
3
41
7.14285766667
71
9
72
1
1
>/.
7
romans
210
0
220
0
230
1
50
360
73
2
44
1
0
MTEXT
5
D8
100
AcDbEntity
8
functionLabels
6
ByLayer
62
256
370
-1
100
AcDbMText
10
81
20
-42
30
0
40
2
41
7.80952444444
71
9
72
1
1
Home
7
romans
210
0
220
0
230
1
50
360
73
2
44
1
0
MTEXT
5
D9
100
AcDbEntity
8
functionLabels
6
ByLayer
62
256
370
-1
100
AcDbMText
10
57
20
-57
30
0
40
1.5
41
4.92857333333
71
7
72
1
1
Num\PLock
7
romans
210
0
220
0
230
1
50
0
73
2
44
1
0
MTEXT
5
DA
100
AcDbEntity
8
functionLabels
6
ByLayer
62
256
370
-1
100
AcDbMText
10
25
20
-70
30
0
40
1.5
41
5.85714333333
71
7
72
1
1
Scroll\PLock
7
romans
210
0
220
0
230
1
50
0
73
2
44
1
0
MTEXT
5
DB
100
AcDbEntity
8
functionLabels
6
ByLayer
62
256
370
-1
100
AcDbMText
10
90
20
-49
30
0
40
2
41
4.38095333333
71
7
72
1
1
Ent
7
romans
210
0
220
0
230
1
50
0
73
2
44
1
0
MTEXT
5
DC
100
AcDbEntity
8
functionLabels
6
ByLayer
62
256
370
-1
100
AcDbMText
10
118
20
-62
30
0
40
3
41
4.28571333333
71
9
72
1
1
f4
7
romans
210
0
220
0
230
1
50
360
73
2
44
1
0
MTEXT
5
DD
100
AcDbEntity
8
NASLabels
6
ByLayer
62
256
370
-1
100
AcDbMText
10
89
20
-43
30
0
40
3
41
2.28571333333
71
9
72
1
1
>
7
romans
210
0
220
0
230
1
50
360
73
2
44
1
0
MTEXT
5
DE
100
AcDbEntity
8
NASLabels
6
ByLayer
62
256
370
-1
100
AcDbMText
10
56
20
-49
30
0
40
3
41
2.28571333333
71
9
72
1
1
<
7
romans
210
0
220
0
230
1
50
360
73
2
44
1
0
MTEXT
5
DF
100
AcDbEntity
8
NASLabels
6
ByLayer
62
256
370
-1
100
AcDbMText
10
62
20
-67
30
0
40
3
41
0.285714333333
71
9
72
1
1
,
7
romans
210
0
220
0
230
1
50
360
73
2
44
1
0
MTEXT
5
E0
100
AcDbEntity
8
NASLabels
6
ByLayer
62
256
370
-1
100
AcDbMText
10
94
20
-61
30
0
40
3
41
0.285714333333
71
9
72
1
1
.
7
romans
210
0
220
0
230
1
50
360
73
2
44
1
0
MTEXT
5
E1
100
AcDbEntity
8
NASLabels
6
ByLayer
62
256
370
-1
100
AcDbMText
10
24
20
-63
30
0
40
3
41
1.14285666667
71
9
72
1
1
"
7
romans
210
0
220
0
230
1
50
360
73
2
44
1
0
MTEXT
5
E2
100
AcDbEntity
8
NASLabels
6
ByLayer
62
256
370
-1
100
AcDbMText
10
12
20
-87
30
0
40
3
41
0.285714333333
71
9
72
1
1
'
7
romans
210
0
220
0
230
1
50
360
73
2
44
1
0
LWPOLYLINE
5
E3
100
AcDbEntity
8
0
6
ByLayer
62
256
370
-1
100
AcDbPolyline
90
9
70
1
43
0
10
34.9587574697
20
14
42
0.427654922327
10
35.9577146564
20
15.0456567547
42
0.0507836129873
10
33.1901595534
20
34.2384297191
42
0.00194551792794
10
33.1901595534
20
34.2384297191
42
0.345333925597
10
32.2189997988
20
35
10
24.6884492913
20
35
42
0.562729075167
10
23.8012039878
20
33.5387020796
42
-0.127761577905
10
28.0437199354
20
15.02883112
42
0.422684613317
10
29.0433042323
20
14
0
LWPOLYLINE
5
E4
100
AcDbEntity
8
0
6
ByLayer
62
256
370
-1
100
AcDbPolyline
90
8
70
1
43
0
10
25
20
19
42
1.63312393532e+16
10
25
20
19
42
0.133918083664
10
19.5
20
36
42
0.133918083664
10
14
20
19
10
14
20
4
42
0.414213562373
10
16
20
2
10
23
20
2
42
0.414213562373
10
25
20
4
0
LWPOLYLINE
5
E5
100
AcDbEntity
8
0
6
ByLayer
62
256
370
-1
100
AcDbPolyline
90
8
70
1
43
0
10
25
20
19
10
25
20
4
42
-0.414213562373
10
23
20
2
10
16
20
2
42
-0.414213562373
10
14
20
4
10
14
20
19
42
-0.133918083664
10
19.5
20
36
42
-0.116433821466
10
19.5
20
36
42
-0.133918083664
0
INSERT
5
E6
100
AcDbEntity
8
keyMask
6
ByLayer
62
256
370
-1
100
AcDbBlockReference
2
Thumb
10
34
20
18
30
0
41
1
42
1
43
0
50
0
70
1
71
1
44
0
45
0
0
INSERT
5
E7
100
AcDbEntity
8
keyMask
6
ByLayer
62
256
370
-1
100
AcDbBlockReference
2
Thumb
10
138
20
-82
30
0
41
-1
42
1
43
0
50
0
70
1
71
1
44
0
45
0
0
CIRCLE
5
E8
100
AcDbEntity
8
led
6
ByLayer
62
256
370
-1
100
AcDbCircle
10
153
20
-54
40
1
0
CIRCLE
5
E9
100
AcDbEntity
8
led
6
ByLayer
62
256
370
-1
100
AcDbCircle
10
153
20
-40.5
40
1
0
MTEXT
5
EA
100
AcDbEntity
8
functionLabels
6
ByLayer
62
256
370
-1
100
AcDbMText
10
114
20
27
30
0
40
1.5
41
6.28571666667
71
7
72
1
1
Pause
7
romans
210
0
220
0
230
1
50
0
73
2
44
1
0
MTEXT
5
EB
100
AcDbEntity
8
functionLabels
6
ByLayer
62
256
370
-1
100
AcDbMText
10
126
20
51
30
0
40
1.5
41
5.07142883333
71
7
72
1
1
Print
7
romans
210
0
220
0
230
1
50
0
73
2
44
1
0
MTEXT
5
EC
100
AcDbEntity
8
functionLabels
6
ByLayer
62
256
370
-1
100
AcDbMText
10
158
20
37
30
0
40
1.5
41
5.5
71
7
72
1
1
Prgm
7
romans
210
0
220
0
230
1
50
0
73
2
44
1
0
HATCH
5
ED
100
AcDbEntity
8
0
6
ByLayer
62
256
370
-1
100
AcDbHatch
10
0
20
0
30
0
210
0
220
0
230
1
2
SOLID
70
1
71
0
91
1
92
0
93
1
72
2
10
19
20
59.5
40
1
50
0
51
360
73
1
97
0
75
0
76
1
98
0
0
HATCH
5
EE
100
AcDbEntity
8
0
6
ByLayer
62
256
370
-1
100
AcDbHatch
10
0
20
0
30
0
210
0
220
0
230
1
2
SOLID
70
1
71
0
91
1
92
0
93
1
72
2
10
19
20
53
40
1
50
0
51
360
73
1
97
0
75
0
76
1
98
0
0
HATCH
5
EF
100
AcDbEntity
8
led
6
ByLayer
62
256
370
-1
100
AcDbHatch
10
0
20
0
30
0
210
0
220
0
230
1
2
SOLID
70
1
71
0
91
1
92
0
93
1
72
2
10
19
20
39
40
1
50
0
51
360
73
1
97
0
75
0
76
1
98
0
0
HATCH
5
F0
100
AcDbEntity
8
led
6
ByLayer
62
256
370
-1
100
AcDbHatch
10
0
20
0
30
0
210
0
220
0
230
1
2
SOLID
70
1
71
0
91
1
92
0
93
1
72
2
10
19
20
53
40
1
50
0
51
360
73
1
97
0
75
0
76
1
98
0
0
HATCH
5
F1
100
AcDbEntity
8
led
6
ByLayer
62
256
370
-1
100
AcDbHatch
10
0
20
0
30
0
210
0
220
0
230
1
2
SOLID
70
1
71
0
91
1
92
0
93
1
72
2
10
19
20
59.5
40
1
50
0
51
360
73
1
97
0
75
0
76
1
98
0
0
HATCH
5
F2
100
AcDbEntity
8
led
6
ByLayer
62
256
370
-1
100
AcDbHatch
10
0
20
0
30
0
210
0
220
0
230
1
2
SOLID
70
1
71
0
91
1
92
0
93
1
72
2
10
19
20
16
40
1
50
0
51
360
73
1
97
0
75
0
76
1
98
0
0
HATCH
5
F3
100
AcDbEntity
8
led
6
ByLayer
62
256
370
-1
100
AcDbHatch
10
0
20
0
30
0
210
0
220
0
230
1
2
SOLID
70
1
71
0
91
1
92
0
93
1
72
2
10
19
20
23
40
1
50
0
51
360
73
1
97
0
75
0
76
1
98
0
0
HATCH
5
F4
100
AcDbEntity
8
led
6
ByLayer
62
256
370
-1
100
AcDbHatch
10
0
20
0
30
0
210
0
220
0
230
1
2
SOLID
70
1
71
0
91
1
92
0
93
1
72
2
10
153
20
-77
40
1
50
0
51
360
73
1
97
0
75
0
76
1
98
0
0
HATCH
5
F5
100
AcDbEntity
8
led
6
ByLayer
62
256
370
-1
100
AcDbHatch
10
0
20
0
30
0
210
0
220
0
230
1
2
SOLID
70
1
71
0
91
1
92
0
93
1
72
2
10
153
20
-84
40
1
50
0
51
360
73
1
97
0
75
0
76
1
98
0
0
MTEXT
5
F6
100
AcDbEntity
8
thumbLabels
6
ByLayer
62
256
370
-1
100
AcDbMText
10
8
20
30
30
0
40
1.5
41
6.42857333333
71
7
72
1
1
Back\PSpace
7
romans
210
0
220
0
230
1
50
0
73
2
44
1
0
MTEXT
5
F7
100
AcDbEntity
8
NASLabels
6
ByLayer
62
256
370
-1
100
AcDbMText
10
16
20
11
30
0
40
2
41
5.52380888889
71
7
72
1
1
NAS
7
romans
210
0
220
0
230
1
50
0
73
2
44
1
0
MTEXT
5
F8
100
AcDbEntity
8
thumbLabels
6
ByLayer
62
256
370
-1
100
AcDbMText
10
159
20
-73
30
0
40
2.5
41
6.190475
71
7
72
1
1
Ctrl
7
romans
210
0
220
0
230
1
50
0
73
2
44
1
0
MTEXT
5
F9
100
AcDbEntity
8
thumbLabels
6
ByLayer
62
256
370
-1
100
AcDbMText
10
142
20
-83
30
0
40
2.5
41
1.54761944444
71
7
72
1
1
E\Pn\Pt\Pe\Pr
7
romans
210
0
220
0
230
1
50
0
73
2
44
0.8
0
MTEXT
5
FA
100
AcDbEntity
8
keyLabels
6
ByLayer
62
256
370
-1
100
AcDbMText
10
149
20
-92
30
0
40
2.5
41
8.45238138889
71
7
72
1
1
Shift
7
romans
210
0
220
0
230
1
50
0
73
2
44
1
0
MTEXT
5
FB
100
AcDbEntity
8
thumbLabels
6
ByLayer
62
256
370
-1
100
AcDbMText
10
162
20
-91
30
0
40
2.5
41
4.52380833333
71
7
72
1
1
Alt
7
romans
210
0
220
0
230
1
50
0
73
2
44
1
0
MTEXT
5
FC
100
AcDbEntity
8
thumbLabels
6
ByLayer
62
256
370
-1
100
AcDbMText
10
4
20
10
30
0
40
2.5
41
6.19047777778
71
7
72
1
1
Tab
7
romans
210
0
220
0
230
1
50
0
73
2
44
1
0
MTEXT
5
FD
100
AcDbEntity
8
thumbLabels
6
ByLayer
62
256
370
-1
100
AcDbMText
10
23
20
32
30
0
40
1.8
41
7.714288
71
7
72
1
1
Space
7
romans
210
0
220
0
230
1
50
0
73
2
44
1
0
MTEXT
5
FE
100
AcDbEntity
8
NASLabels
6
ByLayer
62
256
370
-1
100
AcDbMText
10
22
20
52
30
0
40
3
41
8.28571333333
71
7
72
1
1
NAS
7
romans
210
0
220
0
230
1
50
0
73
2
44
1
0
MTEXT
5
FF
100
AcDbEntity
8
keyLabels
6
ByLayer
62
256
370
-1
100
AcDbMText
10
22
20
59
30
0
40
3
41
14.8571433333
71
7
72
1
1
Normal
7
romans
210
0
220
0
230
1
50
0
73
2
44
1
0
MTEXT
5
100
100
AcDbEntity
8
keyLabels
6
ByLayer
62
256
370
-1
100
AcDbMText
10
150
20
-41
30
0
40
3
41
14.8571433333
71
9
72
1
1
Normal
7
romans
210
0
220
0
230
1
50
360
73
2
44
1
0
MTEXT
5
101
100
AcDbEntity
8
NASLabels
6
ByLayer
62
256
370
-1
100
AcDbMText
10
150
20
-48
30
0
40
3
41
8.28571333333
71
9
72
1
1
NAS
7
romans
210
0
220
0
230
1
50
360
73
2
44
1
0
MTEXT
5
102
100
AcDbEntity
8
functionLabels
6
ByLayer
62
256
370
-1
100
AcDbMText
10
150
20
-55
30
0
40
2.9
41
17.9523865222
71
9
72
1
1
Function
7
romans
210
0
220
0
230
1
50
360
73
2
44
1
0
MTEXT
5
103
100
AcDbEntity
8
led
6
ByLayer
62
20
420
16733440
370
-1
100
AcDbMText
10
150
20
-62
30
0
40
2.9
41
18.0904771111
71
9
72
1
1
Program
7
romans
210
0
220
0
230
1
50
360
73
2
44
1
0
MTEXT
5
104
100
AcDbEntity
8
functionLabels
6
ByLayer
62
256
370
-1
100
AcDbMText
10
22
20
45
30
0
40
2.9
41
17.9523865222
71
7
72
1
1
Function
7
romans
210
0
220
0
230
1
50
0
73
2
44
1
0
MTEXT
5
105
100
AcDbEntity
8
led
6
ByLayer
62
20
420
16733440
370
-1
100
AcDbMText
10
22
20
38
30
0
40
2.9
41
18.0904771111
71
7
72
1
1
Program
7
romans
210
0
220
0
230
1
50
0
73
2
44
1
0
MTEXT
5
106
100
AcDbEntity
8
NASLabels
6
ByLayer
62
256
370
-1
100
AcDbMText
10
113
20
-70
30
0
40
3
41
2.57143
71
9
72
1
1
+
7
romans
210
0
220
0
230
1
50
360
73
2
44
1
0
MTEXT
5
107
100
AcDbEntity
8
NASLabels
6
ByLayer
62
256
370
-1
100
AcDbMText
10
76
20
-67
30
0
40
3
41
2.57143
71
9
72
1
1
=
7
romans
210
0
220
0
230
1
50
360
73
2
44
1
0
MTEXT
5
108
100
AcDbEntity
8
NASLabels
6
ByLayer
62
256
370
-1
100
AcDbMText
10
44
20
-73
30
0
40
3
41
2.14285666667
71
9
72
1
1
#
7
romans
210
0
220
0
230
1
50
360
73
2
44
1
0
MTEXT
5
109
100
AcDbEntity
8
keyLabels
6
ByLayer
62
256
370
-1
100
AcDbMText
10
164
20
24
30
0
40
3
41
2.57143
71
7
72
1
1
_\P-
7
romans
210
0
220
0
230
1
50
0
73
2
44
1
0
MTEXT
5
10A
100
AcDbEntity
8
NASLabels
6
ByLayer
62
256
370
-1
100
AcDbMText
10
59
20
30
30
0
40
3
41
2.57143
71
7
72
1
1
-
7
romans
210
0
220
0
230
1
50
0
73
2
44
1
0
MTEXT
5
10B
100
AcDbEntity
8
NASLabels
6
ByLayer
62
256
370
-1
100
AcDbMText
10
96
20
33
30
0
40
3
41
1.42857
71
7
72
1
1
*
7
romans
210
0
220
0
230
1
50
0
73
2
44
1
0
MTEXT
5
10C
100
AcDbEntity
8
NASLabels
6
ByLayer
62
256
370
-1
100
AcDbMText
10
103
20
-51
30
0
40
3
41
2.57143
71
7
72
1
1
%
7
romans
210
0
220
0
230
1
50
0
73
2
44
1
0
MTEXT
5
10D
100
AcDbEntity
8
NASLabels
6
ByLayer
62
256
370
-1
100
AcDbMText
10
85
20
57
30
0
40
3
41
2.85714333333
71
7
72
1
1
&
7
romans
210
0
220
0
230
1
50
0
73
2
44
1
0
MTEXT
5
10E
100
AcDbEntity
8
NASLabels
6
ByLayer
62
256
370
-1
100
AcDbMText
10
122
20
-46
30
0
40
3
41
2
71
9
72
1
1
$
7
romans
210
0
220
0
230
1
50
360
73
2
44
1
0
MTEXT
5
10F
100
AcDbEntity
8
functionLabels
6
ByLayer
62
256
370
-1
100
AcDbMText
10
16
20
8
30
0
40
2
41
4.66666666667
71
7
72
1
1
MB1
7
romans
210
0
220
0
230
1
50
0
73
2
44
1
0
MTEXT
5
110
100
AcDbEntity
8
functionLabels
6
ByLayer
62
256
370
-1
100
AcDbMText
10
25
20
29
30
0
40
2
41
5.52380888889
71
7
72
1
1
MB2
7
romans
210
0
220
0
230
1
50
0
73
2
44
1
0
MTEXT
5
111
100
AcDbEntity
8
functionLabels
6
ByLayer
62
256
370
-1
100
AcDbMText
10
7
20
27
30
0
40
2
41
5.52380888889
71
7
72
1
1
MB3
7
romans
210
0
220
0
230
1
50
0
73
2
44
1
0
MTEXT
5
112
100
AcDbEntity
8
NASLabels
6
ByLayer
62
256
370
-1
100
AcDbMText
10
16
20
20
30
0
40
2
41
6.57143111111
71
7
72
1
1
Lock
7
romans
210
0
220
0
230
1
50
0
73
2
44
1
0
MTEXT
5
113
100
AcDbEntity
8
functionLabels
6
ByLayer
62
256
370
-1
100
AcDbMText
10
16
20
26
30
0
40
2
41
5.80952444444
71
7
72
1
1
MB11
7
romans
210
0
220
0
230
1
50
0
73
2
44
1
0
MTEXT
5
114
100
AcDbEntity
8
keyLabels
6
ByLayer
62
256
370
-1
100
AcDbMText
10
150
20
-80
30
0
40
2
41
6.57143111111
71
7
72
1
1
Lock
7
romans
210
0
220
0
230
1
50
0
73
2
44
1
0
MTEXT
5
115
100
AcDbEntity
8
NASLabels
6
ByLayer
62
256
370
-1
100
AcDbMText
10
142
20
17
30
0
40
3
41
2
71
7
72
1
1
\
7
romans
210
0
220
0
230
1
50
0
73
2
44
1
0
MTEXT
5
116
100
AcDbEntity
8
NASLabels
6
ByLayer
62
256
370
-1
100
AcDbMText
10
166
20
30
30
0
40
3
41
0
71
7
72
1
1
|
7
romans
210
0
220
0
230
1
50
0
73
2
44
1
0
ENDSEC
0
SECTION
2
OBJECTS
0
DICTIONARY
5
C
330
0
100
AcDbDictionary
281
1
3
ACAD_GROUP
350
D
0
DICTIONARY
5
D
330
C
100
AcDbDictionary
281
1
0
ENDSEC
0
EOF
